<?xml version="1.0" encoding="UTF-8" standalone="no"?>
<!DOCTYPE svg PUBLIC "-//W3C//DTD SVG 1.1//EN" "http://www.w3.org/Graphics/SVG/1.1/DTD/svg11.dtd">
<svg width="100%" height="100%" viewBox="0 0 1920 380" version="1.1" xmlns="http://www.w3.org/2000/svg" xmlns:xlink="http://www.w3.org/1999/xlink" xml:space="preserve" xmlns:serif="http://www.serif.com/" style="fill-rule:evenodd;clip-rule:evenodd;stroke-linejoin:round;stroke-miterlimit:1.41421;">
    <g transform="matrix(0.580148,0,0,0.580156,-45.2464,-80.9765)">
        <path d="M314.956,139.577L314.956,387.89C286.921,355.182 258.218,341.164 218.835,341.164C139.402,341.164 77.991,407.915 77.991,494.691C77.991,582.802 138.734,648.885 220.17,648.885C260.22,648.885 288.923,634.867 314.956,602.159L314.956,639.54L395.724,639.54L395.724,139.577L314.956,139.577ZM242.865,413.922C288.256,413.922 323.634,449.968 323.634,496.026C323.634,539.414 286.921,576.127 242.865,576.127C198.142,576.127 161.429,540.081 161.429,494.691C161.429,449.968 197.475,413.922 242.865,413.922Z" style="fill-rule:nonzero;"/>
        <path d="M593.974,341.164C497.185,341.164 427.765,404.577 427.765,492.688C427.765,585.472 494.515,648.885 591.304,648.885C690.095,648.885 758.18,586.139 758.18,494.691C758.18,403.91 690.762,341.164 593.974,341.164ZM592.639,413.922C638.029,413.922 674.742,449.968 674.742,495.358C674.742,540.081 638.029,576.127 593.306,576.127C547.248,576.127 511.203,540.081 511.203,494.023C511.203,450.635 548.583,413.922 592.639,413.922Z" style="fill-rule:nonzero;"/>
        <path d="M874.327,420.597L931.732,420.597L931.732,350.509L874.327,350.509L874.327,251.718L793.558,251.718L793.558,350.509L761.518,350.509L761.518,420.597L793.558,420.597L793.558,639.54L874.327,639.54L874.327,420.597Z" style="fill-rule:nonzero;"/>
        <path d="M931.732,639.54L1019.18,639.54L1063.9,365.194L1182.05,645.547L1206.08,645.547L1328.23,365.194L1368.28,639.54L1455.73,639.54L1381.63,186.303L1321.56,186.303L1195.4,477.336L1073.91,186.303L1014.5,186.303L931.732,639.54Z" style="fill:rgb(0,97,198);fill-rule:nonzero;"/>
        <path d="M1714.05,350.509L1714.05,387.89C1686.02,355.182 1657.31,341.164 1617.93,341.164C1538.5,341.164 1477.09,407.915 1477.09,494.691C1477.09,582.802 1537.83,648.885 1619.26,648.885C1659.32,648.885 1688.02,634.867 1714.05,602.159L1714.05,639.54L1794.82,639.54L1794.82,350.509L1714.05,350.509ZM1641.96,413.922C1687.35,413.922 1722.73,449.968 1722.73,496.026C1722.73,539.414 1686.02,576.127 1641.96,576.127C1597.24,576.127 1560.52,540.081 1560.52,494.691C1560.52,449.968 1596.57,413.922 1641.96,413.922Z" style="fill-rule:nonzero;"/>
        <path d="M1842.21,350.509L1842.21,639.54L1922.98,639.54L1922.98,490.018C1922.98,435.283 1943.01,409.917 1984.39,409.917C2005.75,409.917 2023.77,418.595 2031.78,432.613C2037.79,442.625 2039.79,455.308 2039.79,479.338L2039.79,639.54L2120.56,639.54L2120.56,455.975C2120.56,416.592 2114.55,395.232 2097.87,375.875C2078.51,353.847 2047.8,341.164 2013.76,341.164C1974.38,341.164 1948.35,353.847 1922.98,386.555L1922.98,350.509L1842.21,350.509Z" style="fill-rule:nonzero;"/>
        <path d="M2389.57,350.509L2389.57,387.89C2361.53,355.182 2332.83,341.164 2293.45,341.164C2214.01,341.164 2152.6,407.915 2152.6,494.691C2152.6,582.802 2213.35,648.885 2294.78,648.885C2334.83,648.885 2363.53,634.867 2389.57,602.159L2389.57,639.54L2470.34,639.54L2470.34,350.509L2389.57,350.509ZM2317.48,413.922C2362.87,413.922 2398.24,449.968 2398.24,496.026C2398.24,539.414 2361.53,576.127 2317.48,576.127C2272.75,576.127 2236.04,540.081 2236.04,494.691C2236.04,449.968 2272.09,413.922 2317.48,413.922Z" style="fill-rule:nonzero;"/>
        <path d="M2821.44,350.509L2740.68,350.509L2740.68,387.89C2713.31,354.514 2686.61,341.164 2646.56,341.164C2565.12,341.164 2505.05,407.915 2505.05,498.696C2505.05,586.139 2563.12,648.885 2642.55,648.885C2683.27,648.885 2710.64,635.535 2740.68,600.824L2740.68,644.212C2740.68,671.58 2734,692.273 2722.65,704.288C2709.3,717.638 2689.28,725.648 2668.59,725.648C2631.87,725.648 2608.51,707.625 2600.5,673.583L2512.39,673.583C2515.06,696.945 2520.4,710.963 2534.42,730.988C2564.45,773.709 2608.51,794.401 2667.25,794.401C2717.98,794.401 2760.7,777.046 2788.74,743.671C2814.1,714.968 2821.44,688.268 2821.44,628.86L2821.44,350.509ZM2669.92,413.922C2714.64,413.922 2750.69,449.968 2750.69,496.026C2750.69,539.414 2713.97,576.127 2669.92,576.127C2625.2,576.127 2588.48,540.081 2588.48,494.691C2588.48,449.968 2624.53,413.922 2669.92,413.922Z" style="fill-rule:nonzero;"/>
        <path d="M3155.87,508.041L3155.87,497.361C3155.87,400.572 3099.79,341.164 3007.68,341.164C2915.56,341.164 2856.15,401.907 2856.15,495.358C2856.15,588.142 2917.57,648.885 3011.68,648.885C3079.77,648.885 3128.5,618.179 3153.2,558.771L3078.43,546.756C3059.74,574.124 3040.39,585.472 3009.68,585.472C2965.62,585.472 2940.93,558.104 2938.93,508.041L3155.87,508.041ZM2941.6,456.643C2948.94,420.597 2973.64,399.237 3009.68,399.237C3045.73,399.237 3069.76,419.262 3078.43,456.643L2941.6,456.643Z" style="fill-rule:nonzero;"/>
        <path d="M3187.24,350.509L3187.24,639.54L3268.01,639.54L3268.01,500.698C3268.01,467.99 3272.68,449.968 3286.03,434.615C3298.04,421.265 3315.4,413.922 3337.43,413.922C3353.45,413.922 3361.46,415.925 3376.14,423.935L3387.49,348.507C3372.8,342.499 3364.79,341.164 3352.11,341.164C3315.4,341.164 3288.7,357.852 3268.01,394.565L3268.01,350.509L3187.24,350.509Z" style="fill-rule:nonzero;"/>
    </g>
</svg>
